<?xml version="1.0" encoding="UTF-8" standalone="no"?>
<!-- Created with Inkscape (http://www.inkscape.org/) -->

<svg
   xmlns:dc="http://purl.org/dc/elements/1.1/"
   xmlns:cc="http://creativecommons.org/ns#"
   xmlns:rdf="http://www.w3.org/1999/02/22-rdf-syntax-ns#"
   xmlns:svg="http://www.w3.org/2000/svg"
   xmlns="http://www.w3.org/2000/svg"
   xmlns:sodipodi="http://sodipodi.sourceforge.net/DTD/sodipodi-0.dtd"
   xmlns:inkscape="http://www.inkscape.org/namespaces/inkscape"
   width="4096"
   height="1028"
   viewBox="0 0 4096 1028"
   id="svg2"
   version="1.1"
   inkscape:version="0.91 r13725"
   sodipodi:docname="lanscape_1.svg"
   inkscape:export-filename="/Users/maigoerit/Downloads/train_png_svg/landscape_01.png"
   inkscape:export-xdpi="90"
   inkscape:export-ydpi="90">
  <defs
     id="defs4" />
  <sodipodi:namedview
     id="base"
     pagecolor="#ffffff"
     bordercolor="#666666"
     borderopacity="1.0"
     inkscape:pageopacity="0.0"
     inkscape:pageshadow="2"
     inkscape:zoom="0.056568542"
     inkscape:cx="57.690636"
     inkscape:cy="493.66404"
     inkscape:document-units="px"
     inkscape:current-layer="layer1"
     showgrid="false"
     inkscape:window-width="1440"
     inkscape:window-height="768"
     inkscape:window-x="0"
     inkscape:window-y="0"
     inkscape:window-maximized="1"
     units="px" />
  <metadata
     id="metadata7">
    <rdf:RDF>
      <cc:Work
         rdf:about="">
        <dc:format>image/svg+xml</dc:format>
        <dc:type
           rdf:resource="http://purl.org/dc/dcmitype/StillImage" />
        <dc:title></dc:title>
      </cc:Work>
    </rdf:RDF>
  </metadata>
  <g
     inkscape:label="Layer 1"
     inkscape:groupmode="layer"
     id="layer1"
     transform="translate(0,-24.36217)">
    <path
       style="fill:#8bc622;fill-opacity:1"
       d="m -0.54239991,354.17299 0,-138.53413 c 0,0 632.33451991,-54.15269 951.59022991,-55.36779 367.35397,-1.39817 746.53477,74.52227 1113.44977,83.76153 340.9654,8.58583 802.8069,-16.96853 1263.1279,-21.95437 426.7568,-4.62229 768.4241,-6.43937 768.4241,-6.43937 l 0,138.53413 0,138.53408 -2048.296,0 -2048.29599991,0 z"
       id="path4203"
       inkscape:connector-curvature="0"
       sodipodi:nodetypes="ccssscccccc" />
    <path
       sodipodi:nodetypes="ccssscccccc"
       inkscape:connector-curvature="0"
       id="path4224"
       d="m -0.54239991,393.92425 0,-138.53415 c 0,0 617.35767991,-72.22236 936.61338991,-73.43745 367.35401,-1.39818 809.50181,88.43375 1176.41691,97.67301 340.9654,8.58583 756.8786,-37.77487 1217.1577,-29.84265 430.797,7.42417 766.404,5.60709 766.404,5.60709 l 0,138.53415 0,774.55385 -2048.296,0 -2048.29599991,0 z"
       style="fill:#37261e;fill-opacity:1"
       inkscape:export-xdpi="90"
       inkscape:export-ydpi="90" />
    <path
       style="fill:#5d4332;fill-opacity:1"
       d="m -0.54239991,367.66773 0,-42.69752 c 0,0 627.63106991,-24.09147 946.88678991,-24.46598 367.35411,-0.43093 742.66801,55.92394 1109.58301,58.77163 340.9654,2.64623 811.3771,-30.78428 1271.6981,-32.32096 426.7568,-1.42465 768.4241,-1.98469 768.4241,-1.98469 l 0,42.69752 0,42.69743 c -259.7941,0 -575.9526,-14.02841 -791.3333,-17.03619 -215.3804,-3.00777 -1263.3947,45.42991 -1263.3947,45.42991 0,0 -593.2879,-66.4734 -845.8813,-73.71065 -252.59356,-7.23726 -418.73669,-13.20302 -618.28794,-5.33413 -199.55122,7.86888 -446.54248,50.65106 -577.69475991,50.65106 0,-42.69743 0,-42.69743 0,-42.69743 z"
       id="path4226"
       inkscape:connector-curvature="0"
       sodipodi:nodetypes="ccsssccczszzcc" />
    <path
       style="fill:#5d4332;fill-opacity:1"
       d="m 511.46559,432.38695 c 3.32278,8.79536 -7.26842,17.24865 -16.23446,17.24865 -8.96601,0 -17.67752,-9.10581 -20.68273,-18.0387 -2.72635,-8.10429 7.32036,-16.18751 16.23446,-17.24886 13.27081,-1.58011 17.38236,9.30258 20.68273,18.03891 z"
       id="path4228"
       inkscape:connector-curvature="0"
       sodipodi:nodetypes="sssss" />
    <path
       sodipodi:nodetypes="sssss"
       inkscape:connector-curvature="0"
       id="path4233"
       d="m 1138.6805,482.58044 c 3.3227,8.79536 -7.2684,17.24866 -16.2344,17.24866 -8.966,0 -17.6777,-9.10581 -20.6829,-18.03872 -2.7263,-8.10428 7.3205,-16.1875 16.2345,-17.24886 13.2709,-1.58011 17.3825,9.30259 20.6828,18.03892 z"
       style="fill:#5d4332;fill-opacity:1" />
    <path
       sodipodi:nodetypes="sssss"
       inkscape:connector-curvature="0"
       id="path4235"
       d="m 114.53248,508.6811 c 3.32278,8.79537 -7.26841,17.24866 -16.234449,17.24866 -8.966015,0 -17.677528,-9.10581 -20.682737,-18.03872 -2.726351,-8.10428 7.320371,-16.18749 16.234454,-17.24885 13.270822,-1.58012 17.382372,9.30259 20.682732,18.03891 z"
       style="fill:#5d4332;fill-opacity:1" />
    <path
       style="fill:#5d4332;fill-opacity:1"
       d="m 1999.2072,482.58044 c 3.3228,8.79536 -7.2684,17.24866 -16.2344,17.24866 -8.966,0 -17.6777,-9.10581 -20.6828,-18.03872 -2.7264,-8.10428 7.3204,-16.1875 16.2344,-17.24886 13.2709,-1.58011 17.3825,9.30259 20.6828,18.03892 z"
       id="path4237"
       inkscape:connector-curvature="0"
       sodipodi:nodetypes="sssss"
       inkscape:transform-center-x="525.20413"
       inkscape:transform-center-y="25.096756" />
    <path
       inkscape:transform-center-y="25.096763"
       inkscape:transform-center-x="525.20411"
       sodipodi:nodetypes="sssss"
       inkscape:connector-curvature="0"
       id="path4239"
       d="m 1500.2633,273.77541 c 3.3229,8.79535 -7.2684,17.24866 -16.2344,17.24866 -8.966,0 -17.6776,-9.10582 -20.6828,-18.03871 -2.7263,-8.10429 7.3205,-16.1875 16.2345,-17.24886 13.2707,-1.58011 17.3824,9.30258 20.6827,18.03891 z"
       style="fill:#5d4332;fill-opacity:1" />
    <path
       style="fill:#5d4332;fill-opacity:1"
       d="m 1263.3719,431.11729 c -1.9532,9.19209 -1.4609,18.00155 -10.427,18.00155 -8.966,0 -16.92,-3.8356 -19.9252,-12.7685 -2.7263,-8.10429 1.5129,-12.42285 10.427,-13.4842 13.2707,-1.58012 21.6748,0.0199 19.9252,8.25115 z"
       id="path4241"
       inkscape:connector-curvature="0"
       sodipodi:nodetypes="sssss"
       inkscape:transform-center-x="525.20409"
       inkscape:transform-center-y="25.096764" />
    <path
       inkscape:transform-center-y="25.09676"
       inkscape:transform-center-x="525.2041"
       sodipodi:nodetypes="sssss"
       inkscape:connector-curvature="0"
       id="path4243"
       d="m 920.56381,240.87921 c -1.9532,9.19208 -1.46086,18.00155 -10.4269,18.00155 -8.96602,0 -16.92001,-3.83559 -19.92522,-12.76849 -2.72635,-8.10429 1.51282,-12.42287 10.4269,-13.48423 13.27082,-1.5801 21.6749,0.0199 19.92522,8.25117 z"
       style="fill:#5d4332;fill-opacity:1" />
    <path
       style="fill:#5d4332;fill-opacity:1"
       d="m 3061.2622,320.73611 c 3.3229,8.79536 -7.2683,17.24866 -16.2344,17.24866 -8.9659,0 -17.6775,-9.10582 -20.6827,-18.03871 -2.7265,-8.10429 7.3204,-16.1875 16.2344,-17.24887 13.2708,-1.5801 17.3824,9.3026 20.6827,18.03892 z"
       id="path4245"
       inkscape:connector-curvature="0"
       sodipodi:nodetypes="sssss" />
    <path
       inkscape:transform-center-y="25.096762"
       inkscape:transform-center-x="525.2041"
       sodipodi:nodetypes="sssss"
       inkscape:connector-curvature="0"
       id="path4247"
       d="m 3208.8075,294.82733 c -1.9531,9.19207 -1.4609,18.00155 -10.427,18.00155 -8.9659,0 -16.92,-3.8356 -19.925,-12.7685 -2.7265,-8.10428 1.5127,-12.42286 10.4269,-13.48422 13.2708,-1.58011 21.6748,0.0199 19.9251,8.25117 z"
       style="fill:#5d4332;fill-opacity:1" />
    <path
       sodipodi:nodetypes="sssss"
       inkscape:connector-curvature="0"
       id="path4249"
       d="m 2767.0188,434.3111 c 3.3229,8.79536 -7.2684,17.24866 -16.2345,17.24866 -8.9659,0 -17.6775,-9.10581 -20.6827,-18.03871 -2.7264,-8.10428 7.3205,-16.1875 16.2345,-17.24886 13.2708,-1.58011 17.3823,9.30259 20.6827,18.03891 z"
       style="fill:#5d4332;fill-opacity:1" />
    <path
       style="fill:#5d4332;fill-opacity:1"
       d="m 2988.839,482.22606 c -1.9531,9.19208 -1.4608,18.00155 -10.4269,18.00155 -8.9659,0 -16.92,-3.8356 -19.9252,-12.7685 -2.7264,-8.10428 1.5128,-12.42286 10.427,-13.48422 13.2708,-1.58011 21.6748,0.0199 19.9251,8.25117 z"
       id="path4251"
       inkscape:connector-curvature="0"
       sodipodi:nodetypes="sssss"
       inkscape:transform-center-x="525.20412"
       inkscape:transform-center-y="25.096762" />
    <path
       style="fill:#5d4332;fill-opacity:1"
       d="m 3818.2966,451.3473 c 3.3229,8.79536 -7.2684,17.24866 -16.2344,17.24866 -8.9659,0 -17.6775,-9.10582 -20.6828,-18.03872 -2.7264,-8.10428 7.3205,-16.1875 16.2346,-17.24885 13.2707,-1.58012 17.3823,9.30258 20.6826,18.03891 z"
       id="path4253"
       inkscape:connector-curvature="0"
       sodipodi:nodetypes="sssss" />
    <path
       inkscape:transform-center-y="25.096761"
       inkscape:transform-center-x="525.20407"
       sodipodi:nodetypes="sssss"
       inkscape:connector-curvature="0"
       id="path4255"
       d="m 3974.4121,468.0291 c -1.9532,9.19207 -1.4609,18.00155 -10.427,18.00155 -8.9659,0 -16.92,-3.8356 -19.9251,-12.76849 -2.7264,-8.10429 1.5128,-12.42286 10.4269,-13.48422 13.2709,-1.58012 21.6749,0.0199 19.9252,8.25116 z"
       style="fill:#5d4332;fill-opacity:1" />
    <path
       style="fill:#5d4332;fill-opacity:1"
       d="m 3397.3519,462.35044 c -1.9531,9.19207 -1.4609,18.00155 -10.4269,18.00155 -8.9659,0 -16.92,-3.8356 -19.9252,-12.7685 -2.7264,-8.10428 1.5129,-12.42286 10.4269,-13.48421 13.2709,-1.58012 21.6749,0.0199 19.9252,8.25116 z"
       id="path4257"
       inkscape:connector-curvature="0"
       sodipodi:nodetypes="sssss"
       inkscape:transform-center-x="525.20411"
       inkscape:transform-center-y="25.096765" />
    <path
       style="fill:#5d4332;fill-opacity:1"
       d="m 2271.7989,343.09668 c -1.9533,9.19208 -1.4611,18.00155 -10.427,18.00155 -8.9661,0 -16.92,-3.8356 -19.9252,-12.7685 -2.7263,-8.10428 1.5129,-12.42286 10.4269,-13.48421 13.2709,-1.58011 21.6749,0.0199 19.9253,8.25116 z"
       id="path4259"
       inkscape:connector-curvature="0"
       sodipodi:nodetypes="sssss"
       inkscape:transform-center-x="525.20408"
       inkscape:transform-center-y="25.096764" />
    <path
       inkscape:transform-center-y="25.096759"
       inkscape:transform-center-x="525.20412"
       sodipodi:nodetypes="sssss"
       inkscape:connector-curvature="0"
       id="path4261"
       d="m 1516.4192,508.13472 c 3.3228,8.79536 -7.2685,17.24866 -16.2345,17.24866 -8.966,0 -17.6775,-9.10582 -20.6827,-18.03871 -2.7263,-8.10429 7.3204,-16.1875 16.2345,-17.24886 13.2708,-1.58011 17.3823,9.30259 20.6827,18.03891 z"
       style="fill:#5d4332;fill-opacity:1" />
    <path
       style="fill:#5d4332;fill-opacity:1"
       d="m 230.88905,306.53916 c 3.32285,8.79535 -7.26841,17.24866 -16.23445,17.24866 -8.96603,0 -17.67753,-9.10582 -20.68274,-18.03872 -2.72635,-8.10429 7.32036,-16.1875 16.23445,-17.24886 13.27082,-1.58012 17.38237,9.30259 20.68274,18.03892 z"
       id="path4263"
       inkscape:connector-curvature="0"
       sodipodi:nodetypes="sssss"
       inkscape:transform-center-x="525.2041"
       inkscape:transform-center-y="25.096761" />
    <path
       sodipodi:nodetypes="sssss"
       inkscape:connector-curvature="0"
       id="path3361"
       d="m 690.16609,738.4653 c 3.32273,8.79535 -7.26855,17.24866 -16.23447,17.24866 -8.96613,0 -17.67746,-9.10582 -20.68283,-18.03872 -2.72621,-8.10429 7.32034,-16.18751 16.23447,-17.24886 13.2709,-1.58012 17.38251,9.30258 20.68283,18.03892 z"
       style="fill:#5d4332;fill-opacity:1" />
    <path
       style="fill:#5d4332;fill-opacity:1"
       d="m 980.28648,819.89189 c 3.32273,8.79543 -7.26835,17.24874 -16.23447,17.24874 -8.96612,0 -17.67747,-9.10582 -20.68284,-18.0388 -2.72621,-8.10428 7.32055,-16.18749 16.23448,-17.24886 13.2709,-1.58011 17.38251,9.30259 20.68283,18.03892 z"
       id="path3363"
       inkscape:connector-curvature="0"
       sodipodi:nodetypes="sssss" />
    <path
       style="fill:#5d4332;fill-opacity:1"
       d="m 156.10972,871.54691 c 3.32271,8.79536 -7.26837,17.24866 -16.23447,17.24866 -8.96592,0 -17.67748,-9.10581 -20.68265,-18.03871 -2.72641,-8.10428 7.32036,-16.1875 16.23428,-17.24887 13.27089,-1.5801 17.38251,9.3026 20.68284,18.03892 z"
       id="path3365"
       inkscape:connector-curvature="0"
       sodipodi:nodetypes="sssss" />
    <path
       inkscape:transform-center-y="25.096745"
       inkscape:transform-center-x="525.20418"
       sodipodi:nodetypes="sssss"
       inkscape:connector-curvature="0"
       id="path3367"
       d="m 2040.7845,845.44625 c 3.3228,8.79536 -7.2685,17.24865 -16.2344,17.24865 -8.9661,0 -17.6776,-9.1058 -20.6828,-18.03871 -2.7262,-8.10427 7.3203,-16.1875 16.2345,-17.24884 13.2709,-1.58012 17.3822,9.30257 20.6827,18.0389 z"
       style="fill:#5d4332;fill-opacity:1" />
    <path
       style="fill:#5d4332;fill-opacity:1"
       d="m 1907.5026,605.40817 c 3.3226,8.79536 -7.2684,17.24866 -16.2346,17.24866 -8.9661,0 -17.6774,-9.10582 -20.6827,-18.03871 -2.7262,-8.10428 7.3204,-16.1875 16.2345,-17.24886 13.2708,-1.58011 17.3824,9.30258 20.6828,18.03891 z"
       id="path3369"
       inkscape:connector-curvature="0"
       sodipodi:nodetypes="sssss"
       inkscape:transform-center-x="525.20411"
       inkscape:transform-center-y="25.096763" />
    <path
       inkscape:transform-center-y="25.096764"
       inkscape:transform-center-x="525.20411"
       sodipodi:nodetypes="sssss"
       inkscape:connector-curvature="0"
       id="path3371"
       d="m 1333.5166,680.40815 c -1.9532,9.19207 -1.4609,18.00154 -10.427,18.00154 -8.9661,0 -16.9199,-3.83559 -19.9252,-12.76849 -2.7264,-8.10429 1.5128,-12.42286 10.427,-13.48421 13.2706,-1.58012 21.6749,0.0199 19.9252,8.25116 z"
       style="fill:#5d4332;fill-opacity:1" />
    <path
       style="fill:#5d4332;fill-opacity:1"
       d="m 962.14108,603.74496 c -1.95312,9.19208 -1.4608,18.00155 -10.42691,18.00155 -8.96591,0 -16.91997,-3.8356 -19.92514,-12.7685 -2.72642,-8.10428 1.51278,-12.42286 10.4269,-13.48421 13.2707,-1.58011 21.6749,0.0199 19.92515,8.25116 z"
       id="path3373"
       inkscape:connector-curvature="0"
       sodipodi:nodetypes="sssss"
       inkscape:transform-center-x="525.20412"
       inkscape:transform-center-y="25.096767" />
    <path
       sodipodi:nodetypes="sssss"
       inkscape:connector-curvature="0"
       id="path3375"
       d="m 2882.871,643.85071 c 3.3228,8.79536 -7.2684,17.24865 -16.2345,17.24865 -8.9659,0 -17.6775,-9.10581 -20.6826,-18.03872 -2.7264,-8.10428 7.3203,-16.18749 16.2345,-17.24885 13.2706,-1.58011 17.3822,9.30258 20.6826,18.03892 z"
       style="fill:#5d4332;fill-opacity:1" />
    <path
       style="fill:#5d4332;fill-opacity:1"
       d="m 3250.3847,657.69316 c -1.9531,9.19208 -1.4607,18.00155 -10.4268,18.00155 -8.966,0 -16.92,-3.83561 -19.9251,-12.7685 -2.7265,-8.10428 1.5127,-12.42286 10.4267,-13.48422 13.2711,-1.58012 21.6749,0.0199 19.9252,8.25117 z"
       id="path3377"
       inkscape:connector-curvature="0"
       sodipodi:nodetypes="sssss"
       inkscape:transform-center-x="525.20418"
       inkscape:transform-center-y="25.096765" />
    <path
       style="fill:#5d4332;fill-opacity:1"
       d="m 2808.596,797.17695 c 3.3229,8.79535 -7.2683,17.24864 -16.2344,17.24864 -8.9659,0 -17.6775,-9.10581 -20.6827,-18.03871 -2.7265,-8.10428 7.3204,-16.18751 16.2345,-17.24885 13.2706,-1.58012 17.3823,9.30258 20.6826,18.03892 z"
       id="path3379"
       inkscape:connector-curvature="0"
       sodipodi:nodetypes="sssss" />
    <path
       inkscape:transform-center-y="25.096742"
       inkscape:transform-center-x="525.2042"
       sodipodi:nodetypes="sssss"
       inkscape:connector-curvature="0"
       id="path3381"
       d="m 3030.4163,845.09187 c -1.9531,9.19208 -1.4609,18.00154 -10.427,18.00154 -8.9659,0 -16.9199,-3.83559 -19.9252,-12.76849 -2.7264,-8.10429 1.5129,-12.42286 10.427,-13.48422 13.2708,-1.58011 21.6749,0.0199 19.9252,8.25117 z"
       style="fill:#5d4332;fill-opacity:1" />
    <path
       sodipodi:nodetypes="sssss"
       inkscape:connector-curvature="0"
       id="path3383"
       d="m 3631.3352,581.38443 c 3.3229,8.79536 -7.2684,17.24864 -16.2344,17.24864 -8.966,0 -17.6776,-9.1058 -20.6828,-18.03869 -2.7264,-8.10429 7.3204,-16.1875 16.2345,-17.24887 13.2707,-1.5801 17.3824,9.3026 20.6827,18.03892 z"
       style="fill:#5d4332;fill-opacity:1" />
    <path
       style="fill:#5d4332;fill-opacity:1"
       d="m 3867.4392,774.10742 c -1.9531,9.19208 -1.4608,18.00155 -10.4269,18.00155 -8.9659,0 -16.9199,-3.83559 -19.9252,-12.7685 -2.7265,-8.10428 1.5128,-12.42283 10.4269,-13.48419 13.2709,-1.58011 21.6749,0.0199 19.9252,8.25114 z"
       id="path3385"
       inkscape:connector-curvature="0"
       sodipodi:nodetypes="sssss"
       inkscape:transform-center-x="525.20419"
       inkscape:transform-center-y="25.096755" />
    <path
       inkscape:transform-center-y="25.096752"
       inkscape:transform-center-x="525.20421"
       sodipodi:nodetypes="sssss"
       inkscape:connector-curvature="0"
       id="path3387"
       d="m 3438.9291,825.21625 c -1.9531,9.19207 -1.4607,18.00154 -10.4268,18.00154 -8.9659,0 -16.92,-3.8356 -19.9252,-12.76849 -2.7265,-8.10427 1.5127,-12.42284 10.4268,-13.48419 13.271,-1.58013 21.675,0.0199 19.9252,8.25114 z"
       style="fill:#5d4332;fill-opacity:1" />
    <path
       inkscape:transform-center-y="25.09676"
       inkscape:transform-center-x="525.20418"
       sodipodi:nodetypes="sssss"
       inkscape:connector-curvature="0"
       id="path3389"
       d="m 2344.8002,652.0144 c -1.9533,9.19206 -1.4609,18.00154 -10.4268,18.00154 -8.9662,0 -16.92,-3.8356 -19.9254,-12.76849 -2.7261,-8.10429 1.5129,-12.42286 10.4269,-13.48423 13.2709,-1.58011 21.6749,0.0199 19.9253,8.25118 z"
       style="fill:#5d4332;fill-opacity:1" />
    <path
       style="fill:#5d4332;fill-opacity:1"
       d="m 1557.9966,871.00053 c 3.3228,8.79536 -7.2684,17.24866 -16.2345,17.24866 -8.9659,0 -17.6776,-9.10581 -20.6826,-18.03871 -2.7265,-8.10429 7.3203,-16.18751 16.2342,-17.24886 13.2709,-1.58011 17.3826,9.30258 20.6829,18.03891 z"
       id="path3391"
       inkscape:connector-curvature="0"
       sodipodi:nodetypes="sssss"
       inkscape:transform-center-x="525.20409"
       inkscape:transform-center-y="25.096743" />
    <path
       inkscape:transform-center-y="25.096763"
       inkscape:transform-center-x="525.2041"
       sodipodi:nodetypes="sssss"
       inkscape:connector-curvature="0"
       id="path3393"
       d="m 478.15108,510.40003 c 3.32293,8.79536 -7.26836,17.24865 -16.23448,17.24865 -8.96591,0 -17.67747,-9.10581 -20.68264,-18.03871 -2.72641,-8.10428 7.32035,-16.18742 16.23448,-17.24877 13.2707,-1.58011 17.38231,9.30249 20.68264,18.03883 z"
       style="fill:#5d4332;fill-opacity:1" />
  </g>
</svg>
