<?xml version="1.0" encoding="UTF-8" standalone="no"?>
<!-- Created with Inkscape (http://www.inkscape.org/) -->

<svg
   xmlns:osb="http://www.openswatchbook.org/uri/2009/osb"
   xmlns:dc="http://purl.org/dc/elements/1.1/"
   xmlns:cc="http://creativecommons.org/ns#"
   xmlns:rdf="http://www.w3.org/1999/02/22-rdf-syntax-ns#"
   xmlns:svg="http://www.w3.org/2000/svg"
   xmlns="http://www.w3.org/2000/svg"
   xmlns:sodipodi="http://sodipodi.sourceforge.net/DTD/sodipodi-0.dtd"
   xmlns:inkscape="http://www.inkscape.org/namespaces/inkscape"
   width="210mm"
   height="297mm"
   viewBox="0 0 744.09448819 1052.3622047"
   id="svg2"
   version="1.1"
   inkscape:version="0.91 r13725"
   sodipodi:docname="letters.svg">
  <defs
     id="defs4">
    <linearGradient
       id="linearGradient5719"
       osb:paint="solid">
      <stop
         style="stop-color:#80a800;stop-opacity:1;"
         offset="0"
         id="stop5721" />
    </linearGradient>
  </defs>
  <sodipodi:namedview
     id="base"
     pagecolor="#2e143f"
     bordercolor="#666666"
     borderopacity="1.0"
     inkscape:pageopacity="0"
     inkscape:pageshadow="2"
     inkscape:zoom="0.32256697"
     inkscape:cx="1282.2796"
     inkscape:cy="970.06858"
     inkscape:document-units="px"
     inkscape:current-layer="layer1"
     showgrid="false"
     inkscape:window-width="1440"
     inkscape:window-height="768"
     inkscape:window-x="0"
     inkscape:window-y="0"
     inkscape:window-maximized="1" />
  <metadata
     id="metadata7">
    <rdf:RDF>
      <cc:Work
         rdf:about="">
        <dc:format>image/svg+xml</dc:format>
        <dc:type
           rdf:resource="http://purl.org/dc/dcmitype/StillImage" />
        <dc:title></dc:title>
      </cc:Work>
    </rdf:RDF>
  </metadata>
  <g
     inkscape:label="Layer 1"
     inkscape:groupmode="layer"
     id="layer1">
    <text
       xml:space="preserve"
       style="font-style:normal;font-variant:normal;font-weight:normal;font-stretch:normal;font-size:80px;line-height:125%;font-family:'.Helvetica LT MM';-inkscape-font-specification:'.Helvetica LT MM, Normal';text-align:start;letter-spacing:0px;word-spacing:0px;writing-mode:lr-tb;text-anchor:start;opacity:0.98999999;fill:#d45500;fill-opacity:1;stroke:#000000;stroke-width:2;stroke-linecap:butt;stroke-linejoin:miter;stroke-miterlimit:4;stroke-dasharray:none;stroke-opacity:0"
       x="42.857143"
       y="140.93362"
       id="text3336"
       sodipodi:linespacing="125%"
       inkscape:export-xdpi="90"
       inkscape:export-ydpi="90"><tspan
         sodipodi:role="line"
         id="tspan3338"
         x="42.857143"
         y="140.93362"
         style="font-style:normal;font-variant:normal;font-weight:normal;font-stretch:normal;font-size:160px;line-height:125%;font-family:'.Helvetica LT MM';-inkscape-font-specification:'.Helvetica LT MM, Normal';text-align:start;writing-mode:lr-tb;text-anchor:start;stroke:#000000;stroke-width:2;stroke-miterlimit:4;stroke-dasharray:none;stroke-opacity:0">ABCDEFGHIJKLMNOPQRSTUVWZ</tspan></text>
    <g
       style="font-style:normal;font-variant:normal;font-weight:normal;font-stretch:normal;font-size:80px;line-height:125%;font-family:'.Helvetica LT MM';-inkscape-font-specification:'.Helvetica LT MM, Normal';text-align:start;letter-spacing:0px;word-spacing:0px;writing-mode:lr-tb;text-anchor:start;opacity:0.98999999;fill:#000000;fill-opacity:1;stroke:#ffffff;stroke-width:2;stroke-linecap:butt;stroke-linejoin:miter;stroke-miterlimit:2;stroke-dasharray:none;stroke-opacity:0.81733745"
       id="text4271"
       inkscape:export-xdpi="90"
       inkscape:export-ydpi="90">
      <path
         d="m 44.777143,140.93362 18.72,0 c 2.88,-10.56 5.92,-21.12 8.8,-31.68 l 42.719997,0 c 3.36,10.56 6.4,21.12 9.76,31.68 l 18.4,0 c -12.96,-40 -26.08,-79.999996 -39.04,-119.999996 l -19.839997,0 c -13.12,40 -26.4,79.999996 -39.52,119.999996 z m 66.239997,-45.279996 -34.399997,0 c 5.76,-20.8 11.52,-41.6 17.28,-62.4 l 0,0 c 5.76,20.8 11.519997,41.6 17.119997,62.4 z"
         style="font-style:normal;font-variant:normal;font-weight:normal;font-stretch:normal;font-size:160px;line-height:125%;font-family:'.Helvetica LT MM';-inkscape-font-specification:'.Helvetica LT MM, Normal';text-align:start;writing-mode:lr-tb;text-anchor:start;opacity:1;fill:#000000;fill-opacity:1;stroke:#ffffff;stroke-width:2;stroke-miterlimit:2;stroke-dasharray:none;stroke-opacity:0.81733745;stroke-linecap:butt;stroke-linejoin:miter"
         id="path5738" />
      <path
         d="m 196.88464,140.93362 c 25.12,0.96 41.44,-10.4 41.28,-35.68 -0.16,-13.119996 -5.92,-26.079996 -21.44,-27.999996 l 0,-0.16 c 8.96,-3.68 14.4,-9.44 16.64,-16.48 1.12,-2.88 1.44,-6.24 1.28,-10.08 -0.64,-18.88 -12,-30.24 -35.36,-29.6 l -40.16,0 0,119.999996 37.76,0 z m -20.64,-14.4 0,-42.719996 14.24,1.44 c 14.56,0 30.72,-1.44 30.56,22.239996 0,11.52 -4.64,15.68 -13.12,17.92 -7.36,2.4 -21.44,1.12 -31.68,1.12 z m 0,-92.479996 14.4,1.44 c 20.16,-0.32 26.4,4 26.4,18.88 0,17.92 -11.68,18.56 -28.32,17.6 -4.16,0 -8.32,0 -12.48,0 l 0,-37.92 z"
         style="font-style:normal;font-variant:normal;font-weight:normal;font-stretch:normal;font-size:160px;line-height:125%;font-family:'.Helvetica LT MM';-inkscape-font-specification:'.Helvetica LT MM, Normal';text-align:start;writing-mode:lr-tb;text-anchor:start;opacity:1;fill:#000000;fill-opacity:1;stroke:#ffffff;stroke-width:2;stroke-miterlimit:2;stroke-dasharray:none;stroke-opacity:0.81733745;stroke-linecap:butt;stroke-linejoin:miter"
         id="path5740" />
      <path
         d="m 340.67214,57.413624 c 0.16,-8.32 -1.76,-15.68 -5.92,-21.6 -6.88,-10.08 -17.92,-17.44 -34.56,-17.44 -22.08,0 -33.76,12.96 -39.84,29.12 -4.16,9.92 -4.96,22.24 -4.96,33.12 0.16,14.72 0.8,31.679996 8.16,42.719996 6.56,12 17.92,20.64 37.6,20.64 13.6,0 23.36,-5.92 31.2,-15.36 7.68,-9.76 6.56,-17.92 8.48,-31.199996 l -16.8,0 c -1.12,7.679996 -2.56,15.199996 -7.36,20.159996 -2.72,6.56 -7.2,11.68 -16.96,11.68 -11.52,0 -18.08,-6.72 -21.92,-15.36 -5.28,-10.56 -5.12,-26.239996 -4.8,-34.559996 0,-8.48 0.32,-22.88 5.76,-32.32 4,-8.16 10.56,-13.92 20.64,-13.92 10.24,0 15.68,4.96 18.4,11.52 3.68,2.4 5.76,6.88 6.24,12.8 l 16.64,0 z"
         style="font-style:normal;font-variant:normal;font-weight:normal;font-stretch:normal;font-size:160px;line-height:125%;font-family:'.Helvetica LT MM';-inkscape-font-specification:'.Helvetica LT MM, Normal';text-align:start;writing-mode:lr-tb;text-anchor:start;opacity:1;fill:#000000;fill-opacity:1;stroke:#ffffff;stroke-width:2;stroke-miterlimit:2;stroke-dasharray:none;stroke-opacity:0.81733745;stroke-linecap:butt;stroke-linejoin:miter"
         id="path5742" />
      <path
         d="m 403.65964,140.93362 c 27.04,0 41.44,-16.48 44.96,-42.079996 1.12,-7.68 1.28,-12.32 1.28,-20.16 -0.48,-28 -9.6,-57.76 -47.52,-57.76 l -38.72,0 0,119.999996 40,0 z m -22.88,-106.079996 21.92,0.48 c 17.12,0 24.8,9.28 27.84,25.76 1.44,4.48 2.08,10.4 2.4,17.28 1.44,37.119996 -8.64,51.999996 -31.68,49.919996 -7.52,-1.92 -14.56,-1.76 -20.48,-1.76 l 0,-91.679996 z"
         style="font-style:normal;font-variant:normal;font-weight:normal;font-stretch:normal;font-size:160px;line-height:125%;font-family:'.Helvetica LT MM';-inkscape-font-specification:'.Helvetica LT MM, Normal';text-align:start;writing-mode:lr-tb;text-anchor:start;opacity:1;fill:#000000;fill-opacity:1;stroke:#ffffff;stroke-width:2;stroke-miterlimit:2;stroke-dasharray:none;stroke-opacity:0.81733745;stroke-linecap:butt;stroke-linejoin:miter"
         id="path5744" />
      <path
         d="m 544.98964,140.93362 0,-14.08 -53.92,0 0,-40.319996 48.8,0 0,-14.24 -48.8,0 0,-37.28 53.28,0 0,-14.08 -70.4,0 0,119.999996 71.04,0 z"
         style="font-style:normal;font-variant:normal;font-weight:normal;font-stretch:normal;font-size:160px;line-height:125%;font-family:'.Helvetica LT MM';-inkscape-font-specification:'.Helvetica LT MM, Normal';text-align:start;writing-mode:lr-tb;text-anchor:start;opacity:1;fill:#000000;fill-opacity:1;stroke:#ffffff;stroke-width:2;stroke-miterlimit:2;stroke-dasharray:none;stroke-opacity:0.81733745;stroke-linecap:butt;stroke-linejoin:miter"
         id="path5746" />
      <path
         d="m 584.03464,140.93362 0,-53.919996 43.68,0 0,-14.08 -43.68,0 0,-37.92 48.64,0 0,-14.08 -65.76,0 0,119.999996 17.12,0 z"
         style="font-style:normal;font-variant:normal;font-weight:normal;font-stretch:normal;font-size:160px;line-height:125%;font-family:'.Helvetica LT MM';-inkscape-font-specification:'.Helvetica LT MM, Normal';text-align:start;writing-mode:lr-tb;text-anchor:start;opacity:1;fill:#000000;fill-opacity:1;stroke:#ffffff;stroke-width:2;stroke-miterlimit:2;stroke-dasharray:none;stroke-opacity:0.81733745;stroke-linecap:butt;stroke-linejoin:miter"
         id="path5748" />
      <path
         d="m 735.17464,78.373624 -45.12,0 0,13.92 28.48,0 c -0.32,9.759996 -2.72,19.679996 -7.84,26.079996 -4.96,6.56 -12.32,11.2 -24.48,9.92 -9.28,-0.96 -15.04,-6.72 -18.4,-13.92 -5.12,-10.24 -4.96,-25.119996 -4.96,-35.039996 0,-10.72 0.32,-24.64 6.4,-33.12 4.16,-6.88 10.56,-12 20.8,-12.32 9.92,-0.48 16.64,3.68 20.64,9.76 3.36,2.4 5.6,6.4 6.24,11.84 l 16.8,0 c -0.16,-5.28 -1.12,-9.92 -3.2,-13.92 -6.4,-13.92 -19.36,-23.2 -38.4,-23.2 -14.24,0 -24.16,5.12 -31.84,12 -12.48,11.2 -15.04,31.68 -15.04,50.08 0,12.8 0.8,27.519996 6.24,38.559996 6.4,14.72 18.24,24.96 39.04,24.96 15.36,0 27.04,-7.84 31.04,-21.44 l 0.32,0 c 0,6.56 0.16,12.96 0.16,19.36 l 13.12,0 0,-63.519996 z"
         style="font-style:normal;font-variant:normal;font-weight:normal;font-stretch:normal;font-size:160px;line-height:125%;font-family:'.Helvetica LT MM';-inkscape-font-specification:'.Helvetica LT MM, Normal';text-align:start;writing-mode:lr-tb;text-anchor:start;opacity:1;fill:#000000;fill-opacity:1;stroke:#ffffff;stroke-width:2;stroke-miterlimit:2;stroke-dasharray:none;stroke-opacity:0.81733745;stroke-linecap:butt;stroke-linejoin:miter"
         id="path5750" />
      <path
         d="m 779.98714,140.93362 0,-55.999996 50.88,0 0,55.999996 17.12,0 0,-119.999996 -17.12,0 0,48.96 -50.88,0 0,-48.96 -17.12,0 0,119.999996 17.12,0 z"
         style="font-style:normal;font-variant:normal;font-weight:normal;font-stretch:normal;font-size:160px;line-height:125%;font-family:'.Helvetica LT MM';-inkscape-font-specification:'.Helvetica LT MM, Normal';text-align:start;writing-mode:lr-tb;text-anchor:start;opacity:1;fill:#000000;fill-opacity:1;stroke:#ffffff;stroke-width:2;stroke-miterlimit:2;stroke-dasharray:none;stroke-opacity:0.81733745;stroke-linecap:butt;stroke-linejoin:miter"
         id="path5752" />
      <path
         d="m 895.84714,140.93362 0,-119.999996 -17.28,0 0,119.999996 17.28,0 z"
         style="font-style:normal;font-variant:normal;font-weight:normal;font-stretch:normal;font-size:160px;line-height:125%;font-family:'.Helvetica LT MM';-inkscape-font-specification:'.Helvetica LT MM, Normal';text-align:start;writing-mode:lr-tb;text-anchor:start;opacity:1;fill:#000000;fill-opacity:1;stroke:#ffffff;stroke-width:2;stroke-miterlimit:2;stroke-dasharray:none;stroke-opacity:0.81733745;stroke-linecap:butt;stroke-linejoin:miter"
         id="path5754" />
      <path
         d="m 915.58464,101.89362 c -0.64,7.36 0.16,21.28 6.56,30.4 5.28,8.64 15.04,11.2 25.28,11.2 14.24,0 23.84,-4.16 29.12,-15.84 3.04,-7.2 3.36,-17.76 3.36,-30.079996 l 0,-76.64 -17.12,0 c 0,25.76 0,51.68 0,77.6 l 0,9.599996 c 0,9.92 -1.92,20.64 -15.84,20.64 -12.8,0 -12.8,-10.24 -12.8,-19.36 -2.08,-0.8 -2.08,-4.32 -2.08,-7.52 l -16.48,0 z"
         style="font-style:normal;font-variant:normal;font-weight:normal;font-stretch:normal;font-size:160px;line-height:125%;font-family:'.Helvetica LT MM';-inkscape-font-specification:'.Helvetica LT MM, Normal';text-align:start;writing-mode:lr-tb;text-anchor:start;opacity:1;fill:#000000;fill-opacity:1;stroke:#ffffff;stroke-width:2;stroke-miterlimit:2;stroke-dasharray:none;stroke-opacity:0.81733745;stroke-linecap:butt;stroke-linejoin:miter"
         id="path5756" />
      <path
         d="m 1024.9946,140.93362 0,-39.68 c 4.16,-7.359996 8.64,-9.599996 14.08,-16.319996 11.84,18.719996 23.52,37.279996 35.36,55.999996 l 21.6,0 c -15.2,-23.84 -30.08,-47.999996 -45.6,-71.519996 14.56,-16.32 29.12,-32.32 43.68,-48.48 l -21.92,0 c -15.68,19.52 -31.36,39.2 -47.04,58.72 l -0.32,0 0,-58.72 -17.12,0 0,119.999996 17.28,0 z"
         style="font-style:normal;font-variant:normal;font-weight:normal;font-stretch:normal;font-size:160px;line-height:125%;font-family:'.Helvetica LT MM';-inkscape-font-specification:'.Helvetica LT MM, Normal';text-align:start;writing-mode:lr-tb;text-anchor:start;opacity:1;fill:#000000;fill-opacity:1;stroke:#ffffff;stroke-width:2;stroke-miterlimit:2;stroke-dasharray:none;stroke-opacity:0.81733745;stroke-linecap:butt;stroke-linejoin:miter"
         id="path5758" />
      <path
         d="m 1183.9446,140.93362 0,-14.08 -54.56,0 0,-105.919996 -17.12,0 0,119.999996 71.68,0 z"
         style="font-style:normal;font-variant:normal;font-weight:normal;font-stretch:normal;font-size:160px;line-height:125%;font-family:'.Helvetica LT MM';-inkscape-font-specification:'.Helvetica LT MM, Normal';text-align:start;writing-mode:lr-tb;text-anchor:start;opacity:1;fill:#000000;fill-opacity:1;stroke:#ffffff;stroke-width:2;stroke-miterlimit:2;stroke-dasharray:none;stroke-opacity:0.81733745;stroke-linecap:butt;stroke-linejoin:miter"
         id="path5760" />
      <path
         d="m 1261.1071,116.13362 c -1.6,5.12 -2.56,9.44 -3.52,14.24 l -0.16,0 c -1.92,-20.32 -8,-35.199996 -12.8,-54.079996 -5.12,-18.4 -10.4,-36.96 -15.52,-55.36 l -27.2,0 0,119.999996 16.8,0 c 0,-39.52 -0.16,-69.599996 -0.64,-110.079996 l 0.32,0 c 9.28,40.64 19.84,70.079996 30.4,110.079996 l 17.92,0 c 5.44,-20.16 10.08,-35.04 15.52,-55.039996 5.28,-20.16 10.24,-33.28 15.04,-55.04 l 0.32,0 c 1.92,39.36 -0.32,70.559996 -0.32,110.079996 l 16.8,0 0,-119.999996 -27.04,0 c -8.8,31.84 -17.28,63.36 -25.92,95.199996 z"
         style="font-style:normal;font-variant:normal;font-weight:normal;font-stretch:normal;font-size:160px;line-height:125%;font-family:'.Helvetica LT MM';-inkscape-font-specification:'.Helvetica LT MM, Normal';text-align:start;writing-mode:lr-tb;text-anchor:start;opacity:1;fill:#000000;fill-opacity:1;stroke:#ffffff;stroke-width:2;stroke-miterlimit:2;stroke-dasharray:none;stroke-opacity:0.81733745;stroke-linecap:butt;stroke-linejoin:miter"
         id="path5762" />
      <path
         d="m 1407.2396,111.81362 c 0,4.8 0.32,9.76 0.48,14.4 l -0.16,0 c -1.92,-5.12 -3.2,-8.64 -4.8,-12 -13.6,-33.599996 -25.6,-59.039996 -38.88,-93.279996 l -23.52,0 0,119.999996 17.44,0 c 0,-39.68 0.64,-67.839996 -0.48,-107.999996 l 0.16,0 c 3.52,19.2 12.8,36.96 19.84,54.88 7.84,17.599996 15.68,35.519996 23.52,53.119996 l 23.84,0 0,-119.999996 -17.44,0 c 0,33.28 -0.16,57.12 0,90.879996 z"
         style="font-style:normal;font-variant:normal;font-weight:normal;font-stretch:normal;font-size:160px;line-height:125%;font-family:'.Helvetica LT MM';-inkscape-font-specification:'.Helvetica LT MM, Normal';text-align:start;writing-mode:lr-tb;text-anchor:start;opacity:1;fill:#000000;fill-opacity:1;stroke:#ffffff;stroke-width:2;stroke-miterlimit:2;stroke-dasharray:none;stroke-opacity:0.81733745;stroke-linecap:butt;stroke-linejoin:miter"
         id="path5764" />
      <path
         d="m 1447.9296,80.773624 c 0.16,15.2 1.6,30.079996 7.52,40.479996 7.2,13.44 18.72,22.72 39.04,22.72 20,0 31.84,-9.28 39.2,-22.72 5.92,-12 7.36,-28.479996 7.52,-45.439996 0,-11.84 -1.12,-24.96 -7.04,-34.56 -6.88,-12.48 -18.24,-22.88 -39.36,-22.88 -20.64,0 -32.32,9.6 -39.52,22.24 -5.92,11.36 -7.36,26.24 -7.36,40.16 z m 75.68,-2.24 c -0.16,16.96 -1.28,29.279996 -5.6,36.959996 -4.48,8.96 -11.68,13.76 -23.52,13.76 -11.84,0 -19.04,-4.96 -23.52,-14.08 -4.32,-7.84 -5.44,-20.159996 -5.44,-36.639996 -0.16,-12.32 1.28,-23.68 5.92,-31.04 4.48,-8.64 11.68,-14.4 22.72,-14.4 11.36,-0.16 18.72,5.6 23.36,14.24 4.48,7.52 6.08,18.88 6.08,31.2 z"
         style="font-style:normal;font-variant:normal;font-weight:normal;font-stretch:normal;font-size:160px;line-height:125%;font-family:'.Helvetica LT MM';-inkscape-font-specification:'.Helvetica LT MM, Normal';text-align:start;writing-mode:lr-tb;text-anchor:start;opacity:1;fill:#000000;fill-opacity:1;stroke:#ffffff;stroke-width:2;stroke-miterlimit:2;stroke-dasharray:none;stroke-opacity:0.81733745;stroke-linecap:butt;stroke-linejoin:miter"
         id="path5766" />
      <path
         d="m 1582.3496,140.93362 0,-49.119996 c 9.12,0 30.88,1.28 43.04,-3.52 14.72,-6.08 20.16,-19.68 20.16,-33.12 0,-25.44 -20.16,-34.24 -45.44,-34.24 l -34.88,0 0,119.999996 17.12,0 z m 0,-105.599996 15.52,0 c 16,-0.32 30.4,2.08 30.4,21.92 0,-0.64 -0.16,-1.76 -0.64,-2.88 -0.64,20.64 -12.48,22.88 -31.36,23.04 -4.64,0 -9.28,0 -13.92,0 l 0,-42.08 z"
         style="font-style:normal;font-variant:normal;font-weight:normal;font-stretch:normal;font-size:160px;line-height:125%;font-family:'.Helvetica LT MM';-inkscape-font-specification:'.Helvetica LT MM, Normal';text-align:start;writing-mode:lr-tb;text-anchor:start;opacity:1;fill:#000000;fill-opacity:1;stroke:#ffffff;stroke-width:2;stroke-miterlimit:2;stroke-dasharray:none;stroke-opacity:0.81733745;stroke-linecap:butt;stroke-linejoin:miter"
         id="path5768" />
      <path
         d="m 1743.9421,123.49362 c 1.76,-2.72 3.2,-6.72 4.96,-10.4 4.32,-12.64 5.28,-30.239996 5.28,-35.999996 0,-13.6 -1.76,-28 -8.64,-38.56 -7.68,-11.2 -18.72,-20.16 -38.56,-20.16 -19.36,0 -30.4,8.8 -37.76,20.32 -6.72,11.04 -8.48,26.08 -8.48,40.32 0,16.64 1.92,32.639996 8.64,43.999996 7.36,12.16 18.4,20.96 37.92,20.96 11.04,0 22.72,-4.16 28.48,-9.76 5.28,3.04 10.4,7.52 12.96,12 3.2,-3.04 6.24,-6.08 9.44,-9.12 -4.8,-4.64 -8.96,-9.28 -14.24,-13.6 z m -21.44,1.12 c -5.12,3.52 -9.76,4.48 -15.52,4.64 -10.72,0.32 -18.4,-4.8 -22.88,-12.64 -4.48,-8.16 -5.92,-20.159996 -5.76,-33.279996 0.16,-21.44 1.76,-35.52 9.44,-41.76 4.32,-4.96 10.4,-8.48 19.52,-8.48 11.84,0 19.84,4.96 24.16,13.92 3.84,8.16 4.96,20.64 5.12,37.28 0.16,12 -2.72,27.519996 -5.76,30.879996 -4.48,-3.84 -9.12,-7.68 -13.6,-11.52 -3.52,1.76 -6.88,4.8 -9.12,8.8 4.8,4.16 9.6,8 14.4,12.16 z"
         style="font-style:normal;font-variant:normal;font-weight:normal;font-stretch:normal;font-size:160px;line-height:125%;font-family:'.Helvetica LT MM';-inkscape-font-specification:'.Helvetica LT MM, Normal';text-align:start;writing-mode:lr-tb;text-anchor:start;opacity:1;fill:#000000;fill-opacity:1;stroke:#ffffff;stroke-width:2;stroke-miterlimit:2;stroke-dasharray:none;stroke-opacity:0.81733745;stroke-linecap:butt;stroke-linejoin:miter"
         id="path5770" />
      <path
         d="m 1795.6346,87.973624 25.44,2.56 c 16.96,0 22.24,10.399996 22.24,22.879996 0,7.84 1.6,21.28 4,27.52 l 19.52,0 c 0.32,-1.92 -6.88,-18.4 -7.52,-34.72 0,-0.8 -0.16,-1.12 -0.32,-1.12 -2.56,-15.679996 -5.92,-20.479996 -21.6,-22.239996 l 0,-0.32 c 13.76,-2.08 23.2,-12.96 23.52,-27.84 0.16,-5.12 -0.32,-9.28 -1.76,-12.8 -5.12,-16.64 -20.8,-20.96 -43.84,-20.96 l -36.8,0 0,119.999996 17.12,0 0,-52.959996 z m 0,-52.64 c 6.4,0 13.12,0 19.68,0 10.24,-0.16 28.32,0 28.64,20.96 0.16,14.56 -8.8,19.52 -17.92,20.48 -3.52,0.16 -6.4,-0.32 -7.36,-0.32 l -23.04,0 0,-41.12 z"
         style="font-style:normal;font-variant:normal;font-weight:normal;font-stretch:normal;font-size:160px;line-height:125%;font-family:'.Helvetica LT MM';-inkscape-font-specification:'.Helvetica LT MM, Normal';text-align:start;writing-mode:lr-tb;text-anchor:start;opacity:1;fill:#000000;fill-opacity:1;stroke:#ffffff;stroke-width:2;stroke-miterlimit:2;stroke-dasharray:none;stroke-opacity:0.81733745;stroke-linecap:butt;stroke-linejoin:miter"
         id="path5772" />
      <path
         d="m 1962.8921,51.013624 c 0,-4.48 -0.96,-8.32 -2.72,-11.84 -4.96,-13.28 -17.28,-20.8 -36.48,-20.8 -17.92,0 -31.2,8.96 -36.48,22.4 -1.44,3.68 -2.08,7.68 -2.08,12 l 0,-1.28 c 0,23.52 11.04,26.72 40.32,36.16 12.64,4.16 20.8,3.68 21.76,21.439996 1.44,6.56 0,11.68 -4,15.2 -4,3.52 -10.72,5.44 -18.72,5.44 -5.28,-0.16 -9.76,-1.12 -13.12,-2.56 -9.12,-4 -11.68,-10.72 -11.36,-22.88 l -16.96,0 c 0.16,5.6 0.32,14.24 3.04,19.2 8.16,15.84 23.36,20.48 37.76,20.48 21.12,0 35.36,-9.6 40.8,-25.12 1.6,-3.52 2.4,-7.52 2.4,-12.16 0,-17.279996 -6.72,-26.239996 -29.28,-32.479996 -15.2,-4.48 -33.44,-5.92 -34.56,-21.6 -0.48,-4.16 0,-9.12 2.88,-12.8 2.72,-3.84 8.32,-7.04 19.04,-7.04 8.8,0 15.04,3.84 18.24,9.6 1.76,2.08 2.88,5.12 2.72,8.64 l 16.8,0 z"
         style="font-style:normal;font-variant:normal;font-weight:normal;font-stretch:normal;font-size:160px;line-height:125%;font-family:'.Helvetica LT MM';-inkscape-font-specification:'.Helvetica LT MM, Normal';text-align:start;writing-mode:lr-tb;text-anchor:start;opacity:1;fill:#000000;fill-opacity:1;stroke:#ffffff;stroke-width:2;stroke-miterlimit:2;stroke-dasharray:none;stroke-opacity:0.81733745;stroke-linecap:butt;stroke-linejoin:miter"
         id="path5774" />
      <path
         d="m 1978.3971,35.653624 34.56,0 0,105.279996 17.12,0 0,-105.279996 34.56,0 0,-14.72 -86.24,0 0,14.72 z"
         style="font-style:normal;font-variant:normal;font-weight:normal;font-stretch:normal;font-size:160px;line-height:125%;font-family:'.Helvetica LT MM';-inkscape-font-specification:'.Helvetica LT MM, Normal';text-align:start;writing-mode:lr-tb;text-anchor:start;opacity:1;fill:#000000;fill-opacity:1;stroke:#ffffff;stroke-width:2;stroke-miterlimit:2;stroke-dasharray:none;stroke-opacity:0.81733745;stroke-linecap:butt;stroke-linejoin:miter"
         id="path5776" />
      <path
         d="m 2081.7846,105.73362 c 0,26.24 15.84,38.24 42.24,38.24 26.72,0 42.08,-12.48 42.08,-38.08 l 0,-84.959996 -17.12,0 0,80.959996 c 0.16,10.88 -1.92,27.36 -24.96,27.36 -23.52,0 -25.28,-16.8 -25.12,-27.36 l 0,-80.959996 -17.12,0 0,84.799996 z"
         style="font-style:normal;font-variant:normal;font-weight:normal;font-stretch:normal;font-size:160px;line-height:125%;font-family:'.Helvetica LT MM';-inkscape-font-specification:'.Helvetica LT MM, Normal';text-align:start;writing-mode:lr-tb;text-anchor:start;opacity:1;fill:#000000;fill-opacity:1;stroke:#ffffff;stroke-width:2;stroke-miterlimit:2;stroke-dasharray:none;stroke-opacity:0.81733745;stroke-linecap:butt;stroke-linejoin:miter"
         id="path5778" />
      <path
         d="m 2231.2371,128.29362 -0.32,0 c -3.84,-13.92 -7.52,-26.24 -11.36,-40.319996 -6.24,-22.4 -12.16,-44.64 -18.24,-67.04 l -18.72,0 c 13.28,40 26.24,79.999996 39.36,119.999996 l 18.72,0 c 13.12,-40 26.4,-79.999996 39.52,-119.999996 l -18.72,0 c -10.24,38.88 -19.84,68.16 -30.24,107.359996 z"
         style="font-style:normal;font-variant:normal;font-weight:normal;font-stretch:normal;font-size:160px;line-height:125%;font-family:'.Helvetica LT MM';-inkscape-font-specification:'.Helvetica LT MM, Normal';text-align:start;writing-mode:lr-tb;text-anchor:start;opacity:1;fill:#000000;fill-opacity:1;stroke:#ffffff;stroke-width:2;stroke-miterlimit:2;stroke-dasharray:none;stroke-opacity:0.81733745;stroke-linecap:butt;stroke-linejoin:miter"
         id="path5780" />
      <path
         d="m 2352.1446,63.173624 c 1.76,-8.64 2.72,-17.44 3.84,-28.96 l 0.16,0 c 3.84,42.88 13.12,67.679996 21.12,106.719996 l 19.68,0 c 10.56,-40 20.96,-79.999996 31.36,-119.999996 l -18.88,0 c -6.08,26.56 -12.16,53.92 -18.4,81.439996 -1.76,8.64 -2.88,17.28 -4.16,26.56 l -0.16,0 c -2.56,-23.2 -5.76,-35.039996 -9.12,-51.359996 -3.84,-18.88 -7.84,-37.76 -11.68,-56.64 l -18.88,0 c -3.2,13.76 -6.24,27.84 -9.44,41.6 -4.96,22.24 -10.24,43.199996 -13.44,66.399996 l -0.16,0 c -2.24,-23.2 -5.28,-32.799996 -8.96,-50.719996 -4,-19.2 -7.68,-38.24 -11.68,-57.28 l -18.24,0 c 9.6,40 19.36,79.999996 28.96,119.999996 l 19.68,0 c 6.24,-28.96 12,-48.639996 18.4,-77.759996 z"
         style="font-style:normal;font-variant:normal;font-weight:normal;font-stretch:normal;font-size:160px;line-height:125%;font-family:'.Helvetica LT MM';-inkscape-font-specification:'.Helvetica LT MM, Normal';text-align:start;writing-mode:lr-tb;text-anchor:start;opacity:1;fill:#000000;fill-opacity:1;stroke:#ffffff;stroke-width:2;stroke-miterlimit:2;stroke-dasharray:none;stroke-opacity:0.81733745;stroke-linecap:butt;stroke-linejoin:miter"
         id="path5782" />
      <path
         d="m 2519.7821,140.93362 0,-14.08 -64.48,0 63.36,-91.839996 0,-14.08 -80.64,0 0,14.08 61.44,0 -63.2,91.519996 0,14.4 83.52,0 z"
         style="font-style:normal;font-variant:normal;font-weight:normal;font-stretch:normal;font-size:160px;line-height:125%;font-family:'.Helvetica LT MM';-inkscape-font-specification:'.Helvetica LT MM, Normal';text-align:start;writing-mode:lr-tb;text-anchor:start;opacity:1;fill:#000000;fill-opacity:1;stroke:#ffffff;stroke-width:2;stroke-miterlimit:2;stroke-dasharray:none;stroke-opacity:0.81733745;stroke-linecap:butt;stroke-linejoin:miter"
         id="path5784" />
    </g>
  </g>
</svg>
